<?xml version="1.0" encoding="UTF-8"?>
<svg width="633px" height="112px" viewBox="0 0 633 112" version="1.1" xmlns="http://www.w3.org/2000/svg" xmlns:xlink="http://www.w3.org/1999/xlink">
    <g id="Page-4" stroke="none" stroke-width="1" fill="none" fill-rule="evenodd">
        <g id="mailbaker-copy-16" transform="translate(-0.000000, 0.000000)">
            <path d="M214.724449,90.0036731 L214.724449,44.6868687 L215.335249,44.6868687 L233.530637,89.8108356 L242.081827,89.8108356 L260.277215,44.7832874 L260.888014,44.7832874 L260.888014,90.0036731 L272.332464,90.0036731 L272.332464,24.1818182 L257.737576,24.1818182 L238.192,71.8769513 L237.420464,71.8769513 L217.874888,24.1818182 L203.28,24.1818182 L203.28,90.0036731 L214.724449,90.0036731 Z M299.696132,91 C302.267919,91 304.512874,90.6411081 306.430998,89.9233242 C308.349122,89.2055403 309.945773,88.2520661 311.22095,87.0629017 C312.496127,85.8737374 313.487337,84.5935109 314.194578,83.2222222 L314.194578,83.2222222 L314.580346,83.2222222 L314.580346,90.0036731 L325.767617,90.0036731 L325.767617,56.9641873 C325.767617,53.6859504 325.172891,50.9540863 323.98344,48.768595 C322.793989,46.5831038 321.224127,44.8529232 319.273856,43.5780533 C317.323585,42.3031833 315.169714,41.3872054 312.812243,40.8301194 C310.454772,40.2730334 308.086585,39.9944904 305.707683,39.9944904 C302.257203,39.9944904 299.106765,40.503367 296.256368,41.5211203 C293.405972,42.5388736 290.994922,44.0601469 289.023219,46.0849403 C287.051516,48.1097337 285.637034,50.6219773 284.779772,53.6216713 L284.779772,53.6216713 L295.645569,55.164371 C296.224221,53.4716866 297.344019,52.0039792 299.004965,50.7612489 C300.66591,49.5185185 302.921581,48.8971534 305.771978,48.8971534 C308.472353,48.8971534 310.540498,49.5613713 311.976412,50.8898072 C313.412326,52.218243 314.130283,54.0930517 314.130283,56.5142332 L314.130283,56.5142332 L314.130283,56.7070707 C314.130283,57.8212427 313.717726,58.640802 312.892611,59.1657484 C312.067496,59.6906948 310.754814,60.0763698 308.954563,60.3227732 C307.154313,60.5691766 304.807558,60.842363 301.914298,61.1423324 C299.513964,61.399449 297.193999,61.8119069 294.954401,62.3797062 C292.714804,62.9475054 290.705596,63.7777778 288.926777,64.8705234 C287.147958,65.9632691 285.744191,67.4202632 284.715477,69.241506 C283.686762,71.0627487 283.172405,73.3660851 283.172405,76.1515152 C283.172405,79.3868993 283.89572,82.1080502 285.34235,84.3149679 C286.78898,86.5218855 288.760682,88.187787 291.257458,89.3126722 C293.754234,90.4375574 296.567126,91 299.696132,91 Z M302.717981,82.4508724 C300.296216,82.4508724 298.303081,81.9044995 296.738578,80.8117539 C295.174075,79.7190083 294.391823,78.1013162 294.391823,75.9586777 C294.391823,74.4588307 294.788307,73.2321702 295.581274,72.2786961 C296.374242,71.3252219 297.456535,70.580655 298.828155,70.0449954 C300.199774,69.5093358 301.753562,69.1236609 303.489517,68.8879706 C304.261053,68.7808387 305.171894,68.6522804 306.22204,68.5022957 C307.272186,68.352311 308.333048,68.1808999 309.404626,67.9880624 C310.476204,67.795225 311.445981,67.5702479 312.313959,67.3131313 C313.181937,67.0560147 313.798094,66.7774717 314.162431,66.4775023 L314.162431,66.4775023 L314.162431,72.2947658 C314.162431,74.1160086 313.696294,75.7979798 312.764022,77.3406795 C311.831749,78.8833792 310.508351,80.120753 308.793827,81.0528007 C307.079302,81.9848485 305.054021,82.4508724 302.717981,82.4508724 Z M344.033591,33.630854 C345.876705,33.630854 347.457282,33.0148454 348.775322,31.7828283 C350.093363,30.5508111 350.752383,29.067034 350.752383,27.3314968 C350.752383,25.5745332 350.093363,24.0800429 348.775322,22.8480257 C347.457282,21.6160086 345.876705,21 344.033591,21 C342.190477,21 340.604543,21.6160086 339.275786,22.8480257 C337.94703,24.0800429 337.282652,25.5745332 337.282652,27.3314968 C337.282652,29.067034 337.941672,30.5508111 339.259713,31.7828283 C340.577753,33.0148454 342.169046,33.630854 344.033591,33.630854 Z M349.82011,90.0036731 L349.82011,40.6372819 L338.182777,40.6372819 L338.182777,90.0036731 L349.82011,90.0036731 Z M374.097635,90.0036731 L374.097635,24.1818182 L362.460302,24.1818182 L362.460302,90.0036731 L374.097635,90.0036731 Z M413.90232,90.0036731 C418.938735,90.0036731 423.117888,89.22161 426.439779,87.6574839 C429.76167,86.0933578 432.24773,83.9560759 433.897959,81.2456382 C435.548189,78.5352005 436.373304,75.476584 436.373304,72.0697888 C436.373304,68.7272727 435.687494,65.8775635 434.315875,63.5206612 C432.944255,61.1637588 431.18151,59.3371595 429.027639,58.0408632 C426.873768,56.7445669 424.628813,56.0321396 422.292773,55.9035813 L422.292773,55.9035813 L422.292773,55.2607897 C424.435929,54.7465565 426.375484,53.9002143 428.11144,52.7217631 C429.847396,51.5433119 431.229731,50.0059688 432.258446,48.1097337 C433.28716,46.2134986 433.801517,43.926232 433.801517,41.2479339 C433.801517,37.9911234 433.013908,35.077135 431.438689,32.5059688 C429.86347,29.9348026 427.495283,27.9046526 424.334129,26.4155188 C421.172975,24.9263851 417.213495,24.1818182 412.455691,24.1818182 L412.455691,24.1818182 L387.252184,24.1818182 L387.252184,90.0036731 L413.90232,90.0036731 Z M410.976913,52.1753903 L399.178844,52.1753903 L399.178844,34.0165289 L411.234092,34.0165289 C414.748867,34.0165289 417.401021,34.8414448 419.190556,36.4912764 C420.980091,38.1411081 421.874858,40.2408938 421.874858,42.7906336 C421.874858,44.7190083 421.398006,46.3849097 420.444302,47.7883379 C419.490598,49.1917661 418.188631,50.2737986 416.538401,51.0344353 C414.888172,51.7950719 413.034343,52.1753903 410.976913,52.1753903 L410.976913,52.1753903 Z M412.005628,80.040404 L399.178844,80.040404 L399.178844,60.7566575 L412.327101,60.7566575 C414.79173,60.7566575 416.913454,61.2119682 418.692273,62.1225895 C420.471091,63.0332109 421.842711,64.2759412 422.807131,65.8507805 C423.771551,67.4256198 424.253761,69.18794 424.253761,71.137741 C424.253761,73.75176 423.294699,75.8890419 421.376575,77.5495868 C419.458451,79.2101316 416.334802,80.040404 412.005628,80.040404 L412.005628,80.040404 Z M461.133039,91 C463.704825,91 465.94978,90.6411081 467.867904,89.9233242 C469.786028,89.2055403 471.382679,88.2520661 472.657856,87.0629017 C473.933034,85.8737374 474.924243,84.5935109 475.631484,83.2222222 L475.631484,83.2222222 L476.017252,83.2222222 L476.017252,90.0036731 L487.204523,90.0036731 L487.204523,56.9641873 C487.204523,53.6859504 486.609797,50.9540863 485.420346,48.768595 C484.230895,46.5831038 482.661034,44.8529232 480.710762,43.5780533 C478.760491,42.3031833 476.60662,41.3872054 474.249149,40.8301194 C471.891678,40.2730334 469.523492,39.9944904 467.144589,39.9944904 C463.694109,39.9944904 460.543671,40.503367 457.693274,41.5211203 C454.842878,42.5388736 452.431828,44.0601469 450.460125,46.0849403 C448.488422,48.1097337 447.07394,50.6219773 446.216678,53.6216713 L446.216678,53.6216713 L457.082475,55.164371 C457.661127,53.4716866 458.780926,52.0039792 460.441871,50.7612489 C462.102816,49.5185185 464.358487,48.8971534 467.208884,48.8971534 C469.90926,48.8971534 471.977405,49.5613713 473.413319,50.8898072 C474.849233,52.218243 475.56719,54.0930517 475.56719,56.5142332 L475.56719,56.5142332 L475.56719,56.7070707 C475.56719,57.8212427 475.154632,58.640802 474.329517,59.1657484 C473.504403,59.6906948 472.19172,60.0763698 470.39147,60.3227732 C468.591219,60.5691766 466.244464,60.842363 463.351204,61.1423324 C460.950871,61.399449 458.630905,61.8119069 456.391308,62.3797062 C454.15171,62.9475054 452.142502,63.7777778 450.363683,64.8705234 C448.584864,65.9632691 447.181098,67.4202632 446.152383,69.241506 C445.123669,71.0627487 444.609311,73.3660851 444.609311,76.1515152 C444.609311,79.3868993 445.332626,82.1080502 446.779256,84.3149679 C448.225886,86.5218855 450.197589,88.187787 452.694365,89.3126722 C455.191141,90.4375574 458.004032,91 461.133039,91 Z M464.154888,82.4508724 C461.733122,82.4508724 459.739988,81.9044995 458.175484,80.8117539 C456.610981,79.7190083 455.828729,78.1013162 455.828729,75.9586777 C455.828729,74.4588307 456.225213,73.2321702 457.018181,72.2786961 C457.811148,71.3252219 458.893441,70.580655 460.265061,70.0449954 C461.63668,69.5093358 463.190468,69.1236609 464.926424,68.8879706 C465.69796,68.7808387 466.608801,68.6522804 467.658947,68.5022957 C468.709093,68.352311 469.769955,68.1808999 470.841532,67.9880624 C471.91311,67.795225 472.882888,67.5702479 473.750866,67.3131313 C474.618843,67.0560147 475.235001,66.7774717 475.599337,66.4775023 L475.599337,66.4775023 L475.599337,72.2947658 C475.599337,74.1160086 475.133201,75.7979798 474.200928,77.3406795 C473.268656,78.8833792 471.945257,80.120753 470.230733,81.0528007 C468.516209,81.9848485 466.490927,82.4508724 464.154888,82.4508724 Z M511.257017,24.1818182 L499.619683,24.1818182 L499.619683,90.0036731 L511.257017,90.0036731 L511.256179,73.4110805 L515.490501,68.8731767 L530.609709,90.0036731 L544.529503,90.0036731 L524.2609,61.9471074 L543.404346,40.6372819 L529.806026,40.6372819 L512.0607,60.4674013 L511.256179,60.4678851 L511.257017,24.1818182 Z M571.603845,90.9678604 C575.440093,90.9678604 578.84771,90.3839914 581.826696,89.2162534 C584.805682,88.0485155 587.254237,86.3986838 589.172361,84.2667585 C591.090485,82.1348332 592.392452,79.6333027 593.078261,76.7621671 L593.078261,76.7621671 L582.212464,75.5408632 C581.698107,76.9335782 580.937287,78.1013162 579.930004,79.0440771 C578.922721,79.9868381 577.733269,80.6992654 576.36165,81.181359 C574.990031,81.6634527 573.457675,81.9044995 571.764582,81.9044995 C569.235659,81.9044995 567.028209,81.3634833 565.142232,80.2814509 C563.256255,79.1994184 561.788194,77.6352923 560.738048,75.5890725 C559.687902,73.5428528 559.162829,71.0841751 559.162829,68.2130395 L559.16534,68.502398 L593.560471,68.5022957 L593.560471,64.9348026 C593.560471,60.6066728 592.960388,56.8731252 591.760221,53.7341598 C590.560054,50.5951944 588.915182,48.0079584 586.825606,45.9724518 C584.736029,43.9369452 582.335696,42.4317417 579.624604,41.4568411 C576.913513,40.4819406 574.036327,39.9944904 570.993046,39.9944904 C566.278104,39.9944904 562.173962,41.0711662 558.680619,43.2245179 C555.187276,45.3778696 552.470826,48.3775635 550.531271,52.2235996 C548.591715,56.0696358 547.621938,60.5316804 547.621938,65.6097337 C547.621938,70.7734925 548.586357,75.2569636 550.515197,79.0601469 C552.444037,82.8633303 555.203349,85.798745 558.793135,87.8663912 C562.38292,89.9340373 566.653157,90.9678604 571.603845,90.9678604 Z M559.197405,60.49397 C559.328661,58.622161 559.826135,56.8831242 560.689827,55.2768595 C561.686394,53.4234772 563.084803,51.9236302 564.885053,50.7773186 C566.685304,49.631007 568.77488,49.0578512 571.153783,49.0578512 C573.382664,49.0578512 575.338293,49.5613713 577.02067,50.5684114 C578.703047,51.5754515 580.01573,52.9520967 580.958718,54.6983471 C581.901707,56.4445975 582.383916,58.4318947 582.405348,60.6602388 L582.405348,60.6602388 L559.187728,60.6605733 L559.197405,60.49397 Z M615.716273,90.0036731 L615.716273,60.9816345 C615.716273,58.8818488 616.198483,57.0284665 617.162902,55.4214876 C618.127322,53.8145087 619.450721,52.5557086 621.133098,51.6450872 C622.815475,50.7344659 624.717525,50.2791552 626.839249,50.2791552 C627.8251,50.2791552 628.848457,50.3487909 629.909319,50.4880624 C630.97018,50.6273339 631.747074,50.7826752 632.24,50.9540863 L632.24,50.9540863 L632.24,40.251607 C631.704211,40.1444751 631.034475,40.0641261 630.230792,40.0105601 C629.427109,39.9569942 628.703794,39.9302112 628.060847,39.9302112 C625.231882,39.9302112 622.719033,40.7069177 620.522298,42.2603306 C618.325564,43.8137435 616.777135,46.0153046 615.877009,48.8650138 L615.877009,48.8650138 L615.362652,48.8650138 L615.362652,40.6372819 L604.078939,40.6372819 L604.078939,90.0036731 L615.716273,90.0036731 Z" id="symbol" fill="#0F0F10" fill-rule="nonzero"></path>
            <path d="M106.4,0 C124.956768,-3.40882291e-15 140,15.0432324 140,33.6 L140,98.56 C140,105.982707 133.982707,112 126.56,112 L13.44,112 C6.01729296,112 -8.67337398e-16,105.982707 0,98.56 L0,33.6 C-2.2725486e-15,15.0432324 15.0432324,-3.69660445e-15 33.6,0 L106.4,0 Z M36.4,12.32 L33.6,12.32 C21.9649067,12.32 12.5107701,21.6577857 12.3228509,33.2480963 L12.32,33.6 L12.32,98.56 C12.32,99.1504426 12.7768916,99.6341725 13.3564131,99.676928 L13.44,99.68 L56.56,99.68 C57.1504426,99.68 57.6341725,99.2231084 57.676928,98.6435869 L57.68,98.56 L57.68,33.6 C57.68,21.9649067 48.3422143,12.5107701 36.7519037,12.3228509 L36.4,12.32 Z M102.48,17.9725068 L81.48,17.9725068 L81.48,56 L81.4820865,56.172607 C81.5737155,59.9588475 84.6717081,63 88.48,63 L88.48,63 L88.652607,62.9979135 C92.4388475,62.9062845 95.48,59.8082919 95.48,56 L95.48,56 L95.48,31.97208 L102.48,31.9725068 L102.652607,31.9704204 C106.438848,31.8787913 109.48,28.7807987 109.48,24.9725068 C109.48,21.1065136 106.345993,17.9725068 102.48,17.9725068 L102.48,17.9725068 Z" id="Combined-Shape" fill="#0F0F10"></path>
        </g>
    </g>
</svg>
