<svg width="140" height="140" viewBox="0 0 140 140" fill="none" xmlns="http://www.w3.org/2000/svg">
<path fill-rule="evenodd" clip-rule="evenodd" d="M106.4 12C124.957 12 140 27.0432 140 45.6V110.56C140 117.983 133.983 124 126.56 124H13.44C6.01729 124 0 117.983 0 110.56V45.6C0 27.0432 15.0432 12 33.6 12H106.4Z" fill="white"/>
<path fill-rule="evenodd" clip-rule="evenodd" d="M106.4 12C124.957 12 140 27.0432 140 45.6V110.56C140 117.983 133.983 124 126.56 124H13.44C6.01729 124 0 117.983 0 110.56V45.6C0 27.0432 15.0432 12 33.6 12H106.4ZM36.4 24.32H33.6C21.9649 24.32 12.5108 33.6578 12.3229 45.2481L12.32 45.6V110.56C12.32 111.15 12.7769 111.634 13.3564 111.677L13.44 111.68H56.56C57.1504 111.68 57.6342 111.223 57.6769 110.644L57.68 110.56V45.6C57.68 33.9649 48.3422 24.5108 36.7519 24.3229L36.4 24.32ZM102.48 29.9725H81.48V68L81.4821 68.1726C81.5737 71.9588 84.6717 75 88.48 75L88.6526 74.9979C92.4389 74.9063 95.48 71.8083 95.48 68V43.9721L102.48 43.9725L102.653 43.9704C106.439 43.8788 109.48 40.7808 109.48 36.9725C109.48 33.1065 106.346 29.9725 102.48 29.9725Z" fill="#2A63FF"/>
</svg>
